# xmcd CD database file
#
# Track frame offsets:
#	150
#	8305
#	17195
#	22515
#	32497
#	38967
#	47160
#	52992
#	61527
#	71737
#	79970
#	93345
#	107700
#	117502
#	126162
#	147227
#	155610
#	172195
#	187662
#	211622
#	221027
#	234627
#	252852
#	274845
#	293390
#	304575
#	328325
#
# Disc length: 4481 seconds
#
# Revision: 0
# Processed by: cddbd v1.4PL0 Copyright (c) Steve Scherf et al.
# Submitted via: CDex 1.50beta9
#
DISCID=6d117f1b
DTITLE=Frank Sinatra - "The Voice" 1943-1947
DYEAR=1943
DGENRE=Jazz
TTITLE0=Soon
TTITLE1=Good, Good, Good, Thats You, Thats You
TTITLE2=Some Sunday Morning
TTITLE3=No Can Do (Frank and Linda Romay)
TTITLE4=Gimme A Little Kiss
TTITLE5=Somebody Loves Me
TTITLE6=I'll Buy That Dream
TTITLE7=That's For Me
TTITLE8=Mean To Me
TTITLE9=Stars In Your Eyes
TTITLE10=Love Walked In
TTITLE11=Slowly
TTITLE12=You're So Worth The Waiting For
TTITLE13=Don't Ever Change
TTITLE14=Summertime
TTITLE15=My Ideal
TTITLE16=I Couldn't Sleep A Wink Last Night
TTITLE17=Night And Day
TTITLE18=White Christmas
TTITLE19=You'll Never Know
TTITLE20=As Time Goes By
TTITLE21=Close To You
TTITLE22=That Old Black Magic
TTITLE23=These Foolish Things (Parody)
TTITLE24=Medley
TTITLE25=Day By Day
TTITLE26=Frank Sings The "Lucky Strike" Song
EXTD=YEAR: 1943
EXTT0=
EXTT1=
EXTT2=
EXTT3=
EXTT4=
EXTT5=
EXTT6=
EXTT7=
EXTT8=
EXTT9=
EXTT10=
EXTT11=
EXTT12=
EXTT13=
EXTT14=
EXTT15=
EXTT16=
EXTT17=
EXTT18=
EXTT19=
EXTT20=
EXTT21=
EXTT22=
EXTT23=
EXTT24=
EXTT25=
EXTT26=
PLAYORDER=
